<svg width="22" height="20" viewBox="0 0 22 20" fill="none" xmlns="http://www.w3.org/2000/svg">
<path d="M10.7257 18.2267V3.41525M10.7257 18.2267L9.26826 16.7692C8.44525 15.9462 7.32949 15.4838 6.16557 15.4838H2.49621C1.89028 15.4838 1.40002 14.9926 1.40002 14.3867V2.86667C1.40002 2.26074 1.89123 1.76953 2.49717 1.76953H6.71365C7.87757 1.76953 8.99382 2.2319 9.81683 3.05491L10.7257 3.96382L11.6346 3.05491C12.4577 2.2319 13.5739 1.76953 14.7378 1.76953H19.5029C20.1088 1.76953 20.6 2.26074 20.6 2.86667V14.3867C20.6 14.9926 20.1088 15.4838 19.5029 15.4838H15.2864C14.1225 15.4838 13.0062 15.9462 12.1832 16.7692L10.7257 18.2267Z" stroke="black" stroke-opacity="0.8" stroke-width="2" stroke-linecap="round" stroke-linejoin="round"/>
</svg>
