<svg width="22" height="20" viewBox="0 0 22 20" fill="none" xmlns="http://www.w3.org/2000/svg">
<path d="M2.40002 16.1205V3.88047H0.400024V16.1205H2.40002ZM3.80002 2.48047H18.2V0.480469H3.80002V2.48047ZM19.6 3.88047V16.1205H21.6V3.88047H19.6ZM19.6 16.1205C19.6 16.8937 18.9732 17.5205 18.2 17.5205V19.5205C20.0778 19.5205 21.6 17.9982 21.6 16.1205H19.6ZM18.2 2.48047C18.9732 2.48047 19.6 3.10727 19.6 3.88047H21.6C21.6 2.0027 20.0778 0.480469 18.2 0.480469V2.48047ZM2.40002 3.88047C2.40002 3.10727 3.02682 2.48047 3.80002 2.48047V0.480469C1.92226 0.480469 0.400024 2.0027 0.400024 3.88047H2.40002ZM3.80002 17.5205C3.02683 17.5205 2.40002 16.8937 2.40002 16.1205H0.400024C0.400024 17.9982 1.92226 19.5205 3.80002 19.5205V17.5205ZM13.6 10.0006C13.6 11.4365 12.436 12.6006 11 12.6006V14.6006C13.5405 14.6006 15.6 12.5411 15.6 10.0006H13.6ZM11 12.6006C9.56408 12.6006 8.40002 11.4365 8.40002 10.0006H6.40002C6.40002 12.5411 8.45951 14.6006 11 14.6006V12.6006ZM8.40002 10.0006C8.40002 8.56465 9.56408 7.40059 11 7.40059V5.40059C8.45951 5.40059 6.40002 7.46008 6.40002 10.0006H8.40002ZM11 7.40059C12.436 7.40059 13.6 8.56465 13.6 10.0006H15.6C15.6 7.46008 13.5405 5.40059 11 5.40059V7.40059ZM18.2 17.5205H3.80002V19.5205H18.2V17.5205Z" fill="black" fill-opacity="0.8"/>
</svg>
