<svg width="8" height="13" viewBox="0 0 8 13" fill="none" xmlns="http://www.w3.org/2000/svg">
<path d="M6.625 1.375H6.6325V1.3825H6.625V1.375Z" stroke="black" stroke-opacity="0.4" stroke-width="2" stroke-linecap="round" stroke-linejoin="round"/>
<path d="M7 1.375C7 1.47446 6.96049 1.56984 6.89017 1.64017C6.81984 1.71049 6.72446 1.75 6.625 1.75C6.52554 1.75 6.43016 1.71049 6.35983 1.64017C6.28951 1.56984 6.25 1.47446 6.25 1.375C6.25 1.27554 6.28951 1.18016 6.35983 1.10983C6.43016 1.03951 6.52554 1 6.625 1C6.72446 1 6.81984 1.03951 6.89017 1.10983C6.96049 1.18016 7 1.27554 7 1.375ZM6.625 6.2425H6.6325V6.25H6.625V6.2425Z" stroke="black" stroke-opacity="0.4" stroke-width="2" stroke-linecap="round" stroke-linejoin="round"/>
<path d="M7 6.24219C7 6.34164 6.96049 6.43703 6.89017 6.50735C6.81984 6.57768 6.72446 6.61719 6.625 6.61719C6.52554 6.61719 6.43016 6.57768 6.35983 6.50735C6.28951 6.43703 6.25 6.34164 6.25 6.24219C6.25 6.14273 6.28951 6.04735 6.35983 5.97702C6.43016 5.9067 6.52554 5.86719 6.625 5.86719C6.72446 5.86719 6.81984 5.9067 6.89017 5.97702C6.96049 6.04735 7 6.14273 7 6.24219ZM6.625 11.1247H6.6325V11.1322H6.625V11.1247Z" stroke="black" stroke-opacity="0.4" stroke-width="2" stroke-linecap="round" stroke-linejoin="round"/>
<path d="M7 11.125C7 11.2245 6.96049 11.3198 6.89017 11.3902C6.81984 11.4605 6.72446 11.5 6.625 11.5C6.52554 11.5 6.43016 11.4605 6.35983 11.3902C6.28951 11.3198 6.25 11.2245 6.25 11.125C6.25 11.0255 6.28951 10.9302 6.35983 10.8598C6.43016 10.7895 6.52554 10.75 6.625 10.75C6.72446 10.75 6.81984 10.7895 6.89017 10.8598C6.96049 10.9302 7 11.0255 7 11.125ZM1.375 1.375H1.3825V1.3825H1.375V1.375Z" stroke="black" stroke-opacity="0.4" stroke-width="2" stroke-linecap="round" stroke-linejoin="round"/>
<path d="M1.75 1.375C1.75 1.47446 1.71049 1.56984 1.64017 1.64017C1.56984 1.71049 1.47446 1.75 1.375 1.75C1.27554 1.75 1.18016 1.71049 1.10983 1.64017C1.03951 1.56984 1 1.47446 1 1.375C1 1.27554 1.03951 1.18016 1.10983 1.10983C1.18016 1.03951 1.27554 1 1.375 1C1.47446 1 1.56984 1.03951 1.64017 1.10983C1.71049 1.18016 1.75 1.27554 1.75 1.375ZM1.375 6.2425H1.3825V6.25H1.375V6.2425Z" stroke="black" stroke-opacity="0.4" stroke-width="2" stroke-linecap="round" stroke-linejoin="round"/>
<path d="M1.75 6.24219C1.75 6.34164 1.71049 6.43703 1.64017 6.50735C1.56984 6.57768 1.47446 6.61719 1.375 6.61719C1.27554 6.61719 1.18016 6.57768 1.10983 6.50735C1.03951 6.43703 1 6.34164 1 6.24219C1 6.14273 1.03951 6.04735 1.10983 5.97702C1.18016 5.9067 1.27554 5.86719 1.375 5.86719C1.47446 5.86719 1.56984 5.9067 1.64017 5.97702C1.71049 6.04735 1.75 6.14273 1.75 6.24219ZM1.375 11.1247H1.3825V11.1322H1.375V11.1247Z" stroke="black" stroke-opacity="0.4" stroke-width="2" stroke-linecap="round" stroke-linejoin="round"/>
<path d="M1.75 11.125C1.75 11.2245 1.71049 11.3198 1.64017 11.3902C1.56984 11.4605 1.47446 11.5 1.375 11.5C1.27554 11.5 1.18016 11.4605 1.10983 11.3902C1.03951 11.3198 1 11.2245 1 11.125C1 11.0255 1.03951 10.9302 1.10983 10.8598C1.18016 10.7895 1.27554 10.75 1.375 10.75C1.47446 10.75 1.56984 10.7895 1.64017 10.8598C1.71049 10.9302 1.75 11.0255 1.75 11.125Z" stroke="black" stroke-opacity="0.4" stroke-width="2" stroke-linecap="round" stroke-linejoin="round"/>
</svg>
