<svg width="24" height="24" viewBox="0 0 24 24" fill="none" xmlns="http://www.w3.org/2000/svg">
<path fill-rule="evenodd" clip-rule="evenodd" d="M3.80674 6.20659C4.70687 5.30673 5.92755 4.80122 7.20034 4.80122C8.47313 4.80122 9.69381 5.30673 10.5939 6.20659L12.0003 7.61179L13.4067 6.20659C13.8495 5.74815 14.3792 5.38247 14.9648 5.13091C15.5504 4.87934 16.1803 4.74693 16.8176 4.74139C17.455 4.73585 18.087 4.8573 18.6769 5.09865C19.2668 5.34 19.8028 5.69641 20.2534 6.1471C20.7041 6.59778 21.0605 7.13371 21.3019 7.72361C21.5432 8.31352 21.6647 8.94558 21.6591 9.58292C21.6536 10.2203 21.5212 10.8501 21.2696 11.4357C21.0181 12.0214 20.6524 12.551 20.1939 12.9938L12.0003 21.1886L3.80674 12.9938C2.90688 12.0937 2.40137 10.873 2.40137 9.60019C2.40137 8.32741 2.90688 7.10673 3.80674 6.20659V6.20659Z" stroke="black" stroke-width="2" stroke-linejoin="round"/>
</svg>
