<svg width="22" height="22" viewBox="0 0 22 22" fill="none" xmlns="http://www.w3.org/2000/svg">
<path d="M9.89102 2.17056C10.272 1.14106 11.7281 1.14106 12.109 2.17056L14.0051 7.2947C14.1249 7.61837 14.3801 7.87356 14.7038 7.99333L19.8279 9.88944C20.8574 10.2704 20.8574 11.7265 19.8279 12.1074L14.7038 14.0035C14.3801 14.1233 14.1249 14.3785 14.0051 14.7022L12.109 19.8263C11.7281 20.8558 10.272 20.8558 9.89102 19.8263L7.99492 14.7022C7.87515 14.3785 7.61996 14.1233 7.29629 14.0035L2.17215 12.1074C1.14265 11.7265 1.14265 10.2704 2.17215 9.88944L7.29629 7.99333C7.61996 7.87356 7.87515 7.61837 7.99492 7.2947L9.89102 2.17056Z" stroke="#8943E2" stroke-opacity="0.8" stroke-width="2" stroke-linejoin="round"/>
</svg>
