<svg width="36" height="36" viewBox="0 0 36 36" fill="none" xmlns="http://www.w3.org/2000/svg">
<rect width="36" height="36" rx="4" fill="black" fill-opacity="0.88"/>
<path d="M16.891 9.17056C17.272 8.14106 18.7281 8.14106 19.109 9.17056L21.0051 14.2947C21.1249 14.6184 21.3801 14.8736 21.7038 14.9933L26.8279 16.8894C27.8574 17.2704 27.8574 18.7265 26.8279 19.1074L21.7038 21.0035C21.3801 21.1233 21.1249 21.3785 21.0051 21.7022L19.109 26.8263C18.7281 27.8558 17.272 27.8558 16.891 26.8263L14.9949 21.7022C14.8752 21.3785 14.62 21.1233 14.2963 21.0035L9.17215 19.1074C8.14265 18.7265 8.14265 17.2704 9.17215 16.8894L14.2963 14.9933C14.62 14.8736 14.8752 14.6184 14.9949 14.2947L16.891 9.17056Z" fill="white"/>
</svg>
