<svg width="18" height="18" viewBox="0 0 18 18" fill="none" xmlns="http://www.w3.org/2000/svg">
<path d="M8.07583 1.64344C8.39329 0.785522 9.60671 0.785521 9.92417 1.64344L11.5043 5.91355C11.6041 6.18328 11.8167 6.39594 12.0864 6.49575L16.3566 8.07583C17.2145 8.39329 17.2145 9.60671 16.3566 9.92417L12.0864 11.5043C11.8167 11.6041 11.6041 11.8167 11.5043 12.0864L9.92417 16.3566C9.60671 17.2145 8.39329 17.2145 8.07583 16.3566L6.49575 12.0864C6.39594 11.8167 6.18328 11.6041 5.91355 11.5043L1.64344 9.92417C0.785522 9.60671 0.785521 8.39329 1.64344 8.07583L5.91355 6.49575C6.18328 6.39594 6.39594 6.18328 6.49575 5.91355L8.07583 1.64344Z" stroke="black" stroke-opacity="0.8" stroke-width="1.66667" stroke-linejoin="round"/>
</svg>
